<svg width="78" height="80" viewBox="0 0 78 80" fill="none" xmlns="http://www.w3.org/2000/svg">
<path fill-rule="evenodd" clip-rule="evenodd" d="M24.0068 3.04482C28.725 1.03463 33.7819 0 38.8889 0C43.9958 0 49.0528 1.03463 53.771 3.04482C58.4892 5.05501 62.7763 8.00138 66.3875 11.7157C69.9986 15.4301 72.8632 19.8396 74.8175 24.6927C76.7719 29.5457 77.7778 34.7471 77.7778 40C77.7778 50.6087 73.6806 60.7828 66.3875 68.2843C59.0944 75.7857 49.2029 80 38.8889 80C33.7819 80 28.725 78.9654 24.0068 76.9552C19.2885 74.945 15.0015 71.9986 11.3903 68.2843C4.09721 60.7828 0 50.6087 0 40C0 29.3913 4.09721 19.2172 11.3903 11.7157C15.0015 8.00138 19.2885 5.05501 24.0068 3.04482ZM39.2361 62.1429C50.9338 62.1429 60.4167 52.3891 60.4167 40.3571C60.4167 28.3252 50.9338 18.5714 39.2361 18.5714C27.5384 18.5714 18.0556 28.3252 18.0556 40.3571C18.0556 52.3891 27.5384 62.1429 39.2361 62.1429Z" fill="#3F2AFF"/>
</svg>
